<svg width="19" height="19" viewBox="0 0 19 19" fill="none" xmlns="http://www.w3.org/2000/svg">
<path d="M14.3582 10.9091C14.1609 11.1003 14.0703 11.3767 14.1152 11.6479L14.7923 15.395C14.8494 15.7126 14.7153 16.034 14.4495 16.2176C14.1891 16.408 13.8425 16.4308 13.5585 16.2785L10.1853 14.5192C10.068 14.4567 9.93777 14.4232 9.80449 14.4194H9.5981C9.52651 14.4301 9.45644 14.4529 9.39246 14.488L6.01853 16.2557C5.85174 16.3394 5.66286 16.3691 5.47779 16.3394C5.02692 16.2541 4.72608 15.8246 4.79996 15.3714L5.47779 11.6243C5.52273 11.3509 5.43209 11.0729 5.23484 10.8786L2.48467 8.21299C2.25466 7.98983 2.17469 7.65472 2.27979 7.35236C2.38185 7.05076 2.64232 6.83065 2.95686 6.78115L6.74206 6.23202C7.02995 6.20232 7.2828 6.02715 7.41228 5.7682L9.0802 2.34854C9.11981 2.27238 9.17083 2.20231 9.23252 2.1429L9.30107 2.08959C9.33686 2.04998 9.37799 2.01723 9.42369 1.99058L9.5067 1.96011L9.63618 1.9068H9.95681C10.2432 1.9365 10.4953 2.10787 10.627 2.36377L12.317 5.7682C12.4389 6.01725 12.6758 6.19013 12.9492 6.23202L16.7344 6.78115C17.0543 6.82685 17.3216 7.04771 17.4274 7.35236C17.5272 7.65777 17.4411 7.99288 17.2066 8.21299L14.3582 10.9091Z" fill="#F6B76F" fill-opacity="0.5"/>
</svg>
